PathFileType	3	(X/Y/Z)	results
DataRate	CameraRate	NumFrames	NumMarkers	Units	OrigDataRate	OrigDataStartFrame	OrigNumFrames
30.0	30.0	4	85	mm	30.0	52	410
Frame#	Time	head			nose			neck			shoulder_r			elbow_r			wrist_r			shoulder_l			elbow_l			wrist_l			hip_r			knee_r			ankle_r			hip_l			knee_l			ankle_l			heel_r			heel_l			mtoe_r			ltoe_r			mtoe_l			ltoe_l			asis_l			asis_r			psi_r			psi_l			mhnd_r			lhnd_r			mhnd_l			lhnd_l			l_lat_knee			r_med_wrist			l_lat_ankle			r_med_ankle			r_lat_knee			xiphoid			l_med_ankle			r_med_knee			l_med_elbow			navel			r_lat_elbow			r_lat_wrist			l_med_wrist			l_lat_elbow			l_med_knee			r_med_elbow			r_lat_ankle			l_lat_wrist			chin			T10			r_eye			l_eye			l_ear			r_ear			spinal_cord_8			spinal_cord_12			spinal_cord_27			spinal_cord_33			up_arm_r_0			up_arm_r_5			up_arm_l_0			up_arm_l_5			front_torso_11			front_torso_7			front_torso_4			front_torso_1			front_torso_10			thigh_r_2			thigh_r_3			thigh_l_1			thigh_l_5			shank_l_0			shank_l_4			shank_r_1			shank_r_2			foot_r_1			foot_r_3			foot_r_5			foot_r_6			foot_r_7			foot_l_1			foot_l_7			foot_l_0			foot_l_4			foot_l_5			foot_l_6			
		X1	Y1	Z1	X2	Y2	Z2	X3	Y3	Z3	X4	Y4	Z4	X5	Y5	Z5	X6	Y6	Z6	X7	Y7	Z7	X8	Y8	Z8	X9	Y9	Z9	X10	Y10	Z10	X11	Y11	Z11	X12	Y12	Z12	X13	Y13	Z13	X14	Y14	Z14	X15	Y15	Z15	X16	Y16	Z16	X17	Y17	Z17	X18	Y18	Z18	X19	Y19	Z19	X20	Y20	Z20	X21	Y21	Z21	X22	Y22	Z22	X23	Y23	Z23	X24	Y24	Z24	X25	Y25	Z25	X26	Y26	Z26	X27	Y27	Z27	X28	Y28	Z28	X29	Y29	Z29	X30	Y30	Z30	X31	Y31	Z31	X32	Y32	Z32	X33	Y33	Z33	X34	Y34	Z34	X35	Y35	Z35	X36	Y36	Z36	X37	Y37	Z37	X38	Y38	Z38	X39	Y39	Z39	X40	Y40	Z40	X41	Y41	Z41	X42	Y42	Z42	X43	Y43	Z43	X44	Y44	Z44	X45	Y45	Z45	X46	Y46	Z46	X47	Y47	Z47	X48	Y48	Z48	X49	Y49	Z49	X50	Y50	Z50	X51	Y51	Z51	X52	Y52	Z52	X53	Y53	Z53	X54	Y54	Z54	X55	Y55	Z55	X56	Y56	Z56	X57	Y57	Z57	X58	Y58	Z58	X59	Y59	Z59	X60	Y60	Z60	X61	Y61	Z61	X62	Y62	Z62	X63	Y63	Z63	X64	Y64	Z64	X65	Y65	Z65	X66	Y66	Z66	X67	Y67	Z67	X68	Y68	Z68	X69	Y69	Z69	X70	Y70	Z70	X71	Y71	Z71	X72	Y72	Z72	X73	Y73	Z73	X74	Y74	Z74	X75	Y75	Z75	X76	Y76	Z76	X77	Y77	Z77	X78	Y78	Z78	X79	Y79	Z79	X80	Y80	Z80	X81	Y81	Z81	X82	Y82	Z82	X83	Y83	Z83	X84	Y84	Z84	X85	Y85	Z85	
52	1.7333333333333334	756.313958041322	1698.443256268265	-1296.5520513066347	725.547508222847	1507.3047221250029	-1416.974068232114	748.1476091369619	1354.151949836993	-1233.9828553866896	917.3795741492742	1322.1607875286522	-1259.5805518419872	1007.2405672944991	1072.552849461062	-1278.8495506190693	819.9290795749368	1020.7017178017747	-1399.568248162266	588.3267497345626	1308.3020081285226	-1223.2418903604407	454.37004849295926	1073.74698482325	-1204.0006249482697	602.4647085557156	1013.4253487202816	-1369.025886709842	843.5101596740928	870.8575371367721	-1277.1176556056987	876.1479511996779	486.32671383347287	-1210.5856399794563	952.8999371486528	102.37161555884755	-1196.670683761171	645.7867772441981	865.0712352570387	-1263.636309938421	622.6804468392729	474.250150421338	-1210.292585173763	551.9777250960808	91.75158608819667	-1184.8685789133876	958.0335871940256	46.27308565976393	-1180.7892095552777	538.7092008593913	29.54797559705702	-1159.8092408030702	955.9877255410943	32.742575991079015	-1405.554850828099	1022.0721326158075	34.6614888322632	-1345.6639633163184	542.9094251918777	30.554435549588856	-1386.3692405446761	464.35859749541316	19.77170768645284	-1328.7459447631898	597.5462469198305	935.7089041049791	-1292.991203293796	887.364519817733	940.4548540969779	-1309.7889291690037	800.3908878196007	927.0696592952686	-1155.2975814470735	701.3166704341419	925.1075490650949	-1154.7831513865315	772.1179306024185	975.7079778022832	-1432.299657683529	748.6879701478915	1020.7578869702727	-1449.346208413856	637.9168315286228	966.6099051845237	-1417.6682347618669	664.4427535321786	1010.7722318558989	-1431.8742788466727	571.5384335112549	471.5801294904993	-1203.871107094522	836.7834026849955	997.3751623670131	-1398.934528615167	498.2061993362052	87.1162562613827	-1173.048761708842	920.4157512238467	85.67972231496285	-1209.3369687388438	920.1577557345506	479.9990341524459	-1208.5725887650985	737.9481109552156	1190.585252360533	-1326.8196346816478	577.5100888539944	74.20842241170122	-1201.653236076339	835.90501339039	474.953386836943	-1220.6593050920424	472.40982888375027	1076.4864509913732	-1171.5412787421467	732.8428416895339	978.3629089170464	-1342.333384603196	1020.1480932070319	1087.0305124603474	-1314.5944693017602	812.6531285324463	1048.7182470788846	-1386.5385537505433	578.50073989926	992.2647381246295	-1369.156496545808	435.67967267475314	1095.0192516492875	-1233.9428170772328	661.2750083317607	465.9955455885637	-1242.217990053228	991.906131284039	1070.9246947572422	-1244.6794637869496	1003.1058824463888	93.52235591239139	-1199.937610865306	607.8568384390628	1043.4312141407543	-1364.8448552025986	734.5272348521403	1426.975301605766	-1394.8452558020017	761.3509711889038	1200.0167540671673	-1138.6253754343356	758.4654683652651	1542.066821844843	-1426.9929856369786	687.2790332087942	1539.6589851110884	-1406.8730987550614	663.0242550293888	1536.4033952375667	-1286.4121744614786	840.4598735213109	1539.1408892978775	-1333.5755653723431	753.9810932615206	1411.1669941380865	-1186.5120904001292	759.0702065996884	1297.0915578810204	-1137.6293746790818	771.6578174619531	1053.115673155593	-1156.5998761919484	759.6572663343129	1190.7749302763577	-1151.2051508601164	928.7738072634468	1189.4803818642847	-1301.2340756386295	1007.98938267858	1185.5167493114259	-1259.0216750261122	541.283482360714	1270.7643316294893	-1239.717719012915	497.51714325209286	1139.2901692263456	-1166.6850034820654	788.0697448174647	1004.8652510508962	-1310.391837106714	735.2163198655178	1106.5104584970823	-1357.0481394647159	669.8281205770033	1234.7527684558438	-1323.6767527510738	664.6836879895033	1037.928792442405	-1298.9583216618	819.9434994367404	1274.221265927281	-1349.7424987443942	843.906071773206	659.2638841034772	-1245.819804325449	942.370493890595	633.8273864367196	-1228.150096104323	675.0442596481577	581.1312169429574	-1237.851947839035	535.9073775081754	764.6266903640161	-1247.1346452210514	501.779271652892	196.62037726826333	-1191.628152468909	641.9590638586346	317.0848008647651	-1211.6051208317338	966.9198129941228	333.33276071232694	-1203.730021113733	876.4861245813987	277.8280651246727	-1208.0504962979828	979.6983343043617	27.685780285352138	-1387.3476100446403	1003.6412991088353	31.67375558924841	-1370.7010529280483	942.9771008973333	44.552139310984494	-1323.2974654284394	979.2471039234722	54.299601041163356	-1310.167263163362	1011.1938044672781	43.47536584167436	-1297.8570271813312	493.8252536537291	19.62951853821044	-1359.4545350673382	479.4145506781783	49.44214956708389	-1253.519144662901	479.146693724862	20.101661175428013	-1351.2084924985818	511.8721239682849	19.01181036485741	-1368.9388024926259	507.0523638796397	34.4243618567259	-1310.1742676526783	538.8039382399232	44.9191882092402	-1281.0641887447237	
53	1.7666666666666666	757.0059039195273	1698.803962242038	-1297.4254262474053	723.3902172244294	1507.2799917311236	-1416.4654621891816	748.4348276684407	1354.3994596966181	-1235.1605549233084	915.3222662286908	1322.9412759613213	-1260.5929473845272	1006.8038328518494	1073.738748299726	-1277.3153373009213	819.959309036476	1020.9477227607786	-1398.3499140355998	588.1596854653417	1305.5622110658671	-1223.9487682545137	452.5786039011547	1071.937024008259	-1204.772601950644	602.9487843906254	1015.1997880285861	-1369.0095040575354	843.5858773874434	871.2076261647868	-1277.219259887243	874.6288264238283	486.4242527800401	-1211.3149988747937	952.4740077379448	102.70447329025289	-1196.987772373234	645.8617604535162	865.2483059899778	-1263.8243348887497	623.1415715764992	474.43238515972604	-1210.3076698048449	552.5780404455414	91.89988627078394	-1185.0078270929064	957.7676190412633	46.734478960906756	-1180.9727510744526	539.4080792634534	29.66029419138356	-1159.9705692101338	955.6042776293922	31.861022953234833	-1405.6524208243063	1021.7239365628403	34.29932238177742	-1345.8193623175034	542.5780937805176	30.99733990716809	-1386.5456155981049	464.27504390916005	20.241388505838724	-1328.5810931814856	597.5687972243795	935.8145875911649	-1293.264586139107	887.3902664100411	940.8167893565359	-1309.9323069788416	800.3575206238179	927.487993473042	-1155.4693761994104	701.2849540633924	925.4336214586925	-1154.9990825247778	772.3014487366645	975.7024267212469	-1430.9578779769683	748.8922123710197	1020.6211882186071	-1448.3749607713705	639.4070567981536	969.351104034118	-1417.8286534743784	665.5587180654054	1013.9727433553119	-1431.2728805239205	572.0147778530802	471.72618320851154	-1203.7667926662202	836.8314436573801	997.6406487118454	-1397.5076735561177	498.8466806905692	87.2456611369824	-1173.0140574109912	920.0236500454771	85.90512337950895	-1209.5985827597851	918.6121326803096	479.90515144547925	-1209.4174618251468	738.2173368173804	1190.6118749167617	-1327.605088720964	578.0570820249254	74.37617075313658	-1201.8935234533508	834.3068300688323	475.2629967710505	-1221.297622281887	470.5707592588938	1074.5833601370332	-1172.2791140147551	732.9613794226615	978.3559495543648	-1342.6004322637461	1019.8041104118538	1087.996349687934	-1313.115054461167	812.6137859221398	1049.0408863452749	-1385.5258833602531	579.232570388109	993.7700155937174	-1369.6147645421545	434.09341624492305	1093.308522527431	-1234.7714559619321	661.663128154967	466.18917650951425	-1242.326340322905	991.3061938809146	1072.3018676774047	-1243.2103639096865	1002.7011847227316	93.99207783041862	-1200.2959455433888	607.9541558089745	1045.215455409549	-1364.4363194543566	731.734964321614	1426.9957401038914	-1393.9279430843726	761.3993478271398	1200.49006555179	-1139.4064117316561	756.5765668301781	1541.6490183742926	-1426.9445170264075	685.5277677113202	1540.0771642885925	-1406.263281699052	662.1766840118555	1537.7749987840743	-1285.601960905388	839.2596554948782	1538.44655915277	-1334.1452224662517	754.2562460492215	1411.5270495103239	-1187.823804800288	759.1949181289226	1297.5688196278543	-1138.6531276825501	771.6106526998959	1053.536833136704	-1157.005220388039	759.7135271286842	1191.2185149904276	-1151.9653548256701	927.7386898732797	1189.990044119175	-1301.0742642570385	1006.7614815384809	1186.8668704189288	-1258.4321639298655	540.8966948082322	1268.3292064952436	-1240.4869718065643	496.09301484990107	1137.2199462203153	-1167.4272873784096	788.1706352867358	1004.893235360639	-1310.6573899364603	735.455071454367	1106.4647931734316	-1357.6289903878871	670.128884656084	1234.8412214625848	-1324.6541803192792	664.7972454028065	1038.0831240454536	-1299.455603383968	820.3072602406901	1274.1256756187104	-1350.634933685335	843.0899409311436	659.5702958524341	-1246.219571011116	941.4809657971732	633.6575891370196	-1228.835259647841	675.3671759480172	581.335132730796	-1238.0268909826257	536.0880694282647	764.7365759212271	-1247.0307974162945	502.342508495611	196.76765971487055	-1191.5025440918328	642.4381064270547	317.2711408874521	-1211.8314699309524	965.8373903794519	333.69481714547857	-1204.3581714945508	875.5555790559634	277.9308096301981	-1208.5126567829257	979.339513411361	26.971163557800875	-1387.4316737170038	1003.2837308525095	31.117168176838554	-1370.8255763031434	942.6197643391238	44.128013681514574	-1323.4578775425107	978.8744025416768	54.042827885955	-1310.4108085493351	1010.8559807408622	43.37083631047519	-1298.058282292531	493.60133265444387	20.102672135505657	-1359.4237763911412	479.7160024520775	49.77846731084789	-1253.3798559848485	478.9611657892692	20.58355979108553	-1351.1102621207792	511.60392422183776	19.473240645240377	-1368.9910609060314	507.07394596815556	34.805348391552926	-1310.182446274894	538.9727901789034	45.2114849011203	-1281.201821548776	
54	1.8	757.2846184060141	1698.9904169084587	-1297.9027492659127	721.2171665506604	1507.4522090187875	-1416.1999582961469	747.5002913546645	1354.6671648203705	-1235.436531745244	910.7463610039063	1322.5340444094072	-1260.4935893719091	1007.0585505979319	1075.1109669336101	-1276.499776215801	819.8294401169586	1022.8816556924736	-1397.1832318274558	590.0339825413656	1302.0739873217638	-1226.3657892528388	449.23294636690383	1071.7752051145812	-1204.727346933268	602.048082033386	1014.7887358409071	-1366.6042809654916	843.9436069625908	871.226161035811	-1277.8496632360743	874.52879119402	486.4885735659812	-1211.4716652411528	951.4524854459708	102.5983717476	-1196.7384016780263	646.2379114175864	865.4215458104011	-1264.119101662949	623.6529667913626	474.6277342011199	-1210.4143539815273	552.9168991055168	92.11398566523965	-1185.3136053371152	956.5688858738864	46.59551460996167	-1180.69199476421	539.7112463849264	29.825864938980715	-1160.3423760531089	955.5082840527781	31.9980559058372	-1405.397675737652	1021.3365856555922	34.50006314011113	-1345.2468306916696	542.8122483400939	31.64044287352283	-1386.9150562746863	464.514063453235	20.857948386350518	-1328.9488935178836	597.9420440206482	935.9587990002506	-1293.6240825129923	887.7389763691535	940.7402887134175	-1310.7761756490206	800.950770018807	927.7823158828227	-1156.1441905929664	701.8778099689481	925.792742146229	-1155.507599131017	772.0760864218571	977.7888379365844	-1429.8626255208449	748.597720928286	1022.7887251245513	-1446.9745734393894	639.2064764679052	968.873752973224	-1414.8296360399672	665.6035749007743	1013.4619097225899	-1427.900091109583	572.5443467173973	471.92317153709155	-1203.7184865876623	836.7103720687691	999.575320187565	-1396.514757306907	499.1845915710709	87.47788301662251	-1173.317063203967	918.9835259088737	85.86574318287654	-1209.3899714735737	918.5091625854517	479.8597438104709	-1209.9088440768019	738.2572862785318	1190.9358597438516	-1328.0831100494554	578.3862646290887	74.58771325268637	-1202.2112413277562	834.1013410748228	475.41069082598614	-1221.1158711706862	467.0738462178812	1074.499064399849	-1172.1569556143925	733.9265668675563	978.675893151208	-1343.3151394290853	1019.8670267845303	1089.5464934589336	-1312.2973274511828	812.5189155256363	1050.9074447944854	-1384.1928627726534	578.3235256237575	993.3809365158036	-1367.55918656298	431.411287230165	1093.1079326576887	-1235.1522964782896	662.0728406708583	466.36743063071276	-1242.5528320041744	991.5098929375176	1073.4422291315836	-1242.4285976520885	1001.6644701373791	93.76612699960957	-1199.9582150724223	607.0113762430077	1044.802659473596	-1361.974146244468	729.2091180684229	1427.1598805441647	-1393.5635643712883	760.7921057632495	1200.7122401318118	-1139.8005282674292	754.5442792659935	1541.564524290879	-1427.0640223456787	683.6824450496719	1540.5365531574462	-1405.7178329196624	661.4436519623378	1538.6577742907382	-1284.8392422445152	838.0659216183293	1537.9802916358472	-1335.032796655124	752.9331826576768	1411.7686121739887	-1188.0221168030766	758.1842268810018	1297.780223979876	-1138.9538172651235	771.6670407547581	1053.8209518275748	-1157.5185004940306	759.1850551181469	1191.4469886498073	-1152.3744376068992	925.8224067530643	1189.7679781760103	-1300.6784016979268	1004.7884060744494	1188.2540514384161	-1257.8440286565874	542.0692371413569	1265.647828788896	-1242.67889028207	493.93548157574577	1136.6259987725093	-1168.0381888467161	788.92256639069	1005.4073274045237	-1311.1667664785978	735.9393761315265	1106.80963280473	-1358.2028939247969	669.9775441578189	1234.8806501472104	-1325.3059736969187	665.3776807452556	1038.075896746505	-1300.3285068242672	820.0752337484848	1274.8119160841534	-1350.7616205608422	843.1552098477616	659.6485329834713	-1246.4510648141636	941.6141517788502	633.5171314728525	-1229.7938431375642	675.7995231830554	581.5135072080456	-1238.3294849057731	536.5083248047563	764.9238386839241	-1246.9574377675729	502.72871732077795	197.00821336048207	-1191.7469039987309	642.877442297487	317.458521983234	-1212.0246948137706	965.3682907299358	333.5513856589847	-1204.2548810222884	874.9631514624102	277.99563675317296	-1208.5162535194079	979.16656864887	27.135149945760293	-1387.0699512942083	1003.0225638777064	31.310534291771525	-1370.3446700800248	942.1062136269861	44.135221118741505	-1323.2508966096025	978.2773252781137	54.10961029676498	-1310.0187167564463	1010.2219636742362	43.489177078711045	-1297.5269543017491	493.8305385543522	20.748593554143792	-1359.8010229507213	480.0149177404657	50.21609623225315	-1253.6899341018345	479.1935697546871	21.229874194316153	-1351.481902107508	511.82935498928686	20.117285850474534	-1369.3752841575722	507.3366440880773	35.32997363386648	-1310.5328074513677	539.257344078837	45.63514855885384	-1281.5401733796123	
55	1.8333333333333333	756.0890923222339	1699.3751078280118	-1298.2915658515146	720.6340025622399	1507.6574853305467	-1416.4832138783459	747.9421641734116	1354.7568212010108	-1236.396684303874	910.3261643139516	1323.2985628349277	-1260.0881510073723	1006.3523584547984	1075.7141270996933	-1275.2977653930648	819.4402444955745	1023.9414285601498	-1396.667393240471	589.2239601854396	1302.033108186516	-1226.514993951491	447.74256557457556	1072.1633864777582	-1204.7524325113943	601.733531529001	1013.7163157956064	-1364.9859729260534	844.0591543796565	871.2240890867682	-1277.6136034590907	874.246318969697	486.47818055137634	-1211.1283842020614	950.908644546079	102.53365162718204	-1196.4485548043856	646.3059312645756	865.6253087436608	-1264.495663978017	623.5187319208056	474.8836929438458	-1210.4947469306499	552.7051163830014	92.38893218255257	-1185.3234037451502	955.9271824718603	46.486712833105365	-1180.4533299138202	539.3586744327899	30.120075036001776	-1160.3594498061834	955.9442632885289	32.41311672782833	-1405.1949311795652	1021.4839141064309	34.80131209387052	-1344.7251024596299	543.9103256355179	31.7206079015155	-1386.9092436592584	465.2506001906818	20.932485343685805	-1329.4357021526569	598.1718830293013	936.1846593346487	-1294.2114886311426	888.0255260095241	940.6669850224966	-1310.4624378018755	800.7421929825379	927.926564553248	-1156.0912808918763	701.6658177777324	926.0347925843092	-1155.762433696628	771.6787960626847	978.9634841999629	-1429.4929372449067	748.4043303804868	1024.0185521199776	-1446.7377149088109	639.1582544183702	967.3908305098851	-1412.6090380357932	665.7930295488837	1011.8196567302824	-1425.7397454855902	572.3817387693191	472.18184079503067	-1204.0192418954316	836.2476405995691	1000.5846712795368	-1395.9115348201306	498.90509901524615	87.75815216393346	-1173.6321526766978	918.4849897136465	85.83040933540326	-1209.2542064726001	918.2188962167326	479.82443321741056	-1209.4205568840582	739.1458624314033	1190.834918926485	-1328.7492527940913	578.2748782353408	74.84608624296496	-1202.0513666240868	833.8469248021524	475.413782808112	-1220.90918010428	465.3072868895252	1075.040036140091	-1172.0453543873616	734.757933997765	978.5460274786107	-1343.5558702147757	1019.3389669668862	1090.0772111149122	-1311.0602594288741	812.1639053945605	1052.0011779721247	-1383.7312552930393	577.9554899765757	992.3708446900074	-1366.0037630266263	430.2306756224779	1093.355372106776	-1235.4543511653935	662.0795446610996	466.5946118707851	-1242.456338061391	990.6515334612393	1074.1191130926647	-1241.2929028811816	1001.1292644015019	93.67845441122819	-1199.4641767695953	606.7455098723453	1043.7446337879776	-1360.5039822511576	728.45340818452	1427.3991565919487	-1393.6667024302362	760.5450308354757	1200.996857764801	-1140.3546220429341	754.041173949136	1541.7362661852314	-1427.205712571297	683.0533692407682	1540.7765799284393	-1406.2790152413515	660.0963764660676	1539.1088113031085	-1285.531665613396	837.0132118171719	1538.2661344820765	-1334.674328246568	753.1276059656412	1411.955392504081	-1189.0717122869416	758.0005175813645	1298.068207554098	-1139.730168283666	771.4236515770265	1054.0606568299324	-1157.6938779716102	759.0077497658239	1191.7059501902202	-1152.9183195970545	925.3881827313587	1190.4505004013429	-1300.0063492261643	1004.1626602255343	1188.8884055225888	-1256.8224854348614	541.323116749854	1265.6136988712972	-1243.029681815003	492.26689149651094	1137.133023495696	-1168.0568322272243	789.5767466750581	1005.3078214706983	-1311.13131804935	736.9513760887727	1106.6463299684697	-1358.7035824662744	670.8815376127773	1234.8327861170123	-1326.4799106584458	665.9914578733599	1038.0849319132876	-1301.11236165833	821.1590025560936	1274.6058003478965	-1351.1092274626885	843.0693941574439	659.6471917854919	-1246.2157827036156	941.4602578939624	633.4710380269464	-1229.229808116538	675.778094751559	581.746102569233	-1238.289643927955	536.5107270331316	765.1354430453802	-1247.7119205553893	502.53676266252813	197.26591302682212	-1192.1787009872187	642.7795307704589	317.7160688005756	-1211.7964666029952	964.9754304843528	333.4866921154718	-1203.6776872397056	874.5605037469791	277.98223265460496	-1208.3772341389124	979.5168855236021	27.51699963741803	-1386.7659516614108	1003.2911150843166	31.66296577852938	-1369.9173805635428	942.1455605877084	44.35319428178228	-1323.0849443083218	978.2490225257465	54.31126178049588	-1309.6571645589006	1010.138119841915	43.674588692834874	-1297.037960494899	494.76428196171065	20.816500856448666	-1360.0992097356373	480.24609503422323	50.37459016791323	-1254.1071823286297	480.0739283585823	21.29432282995594	-1351.8745239983189	512.8245734029553	20.190072592862283	-1369.5573216413022	507.94307007436555	35.45546398608988	-1310.759480383127	539.6693223132378	45.813204478852306	-1281.5727937038648	
